<svg xmlns="http://www.w3.org/2000/svg" width="72" height="72" viewBox="0 0 72 72" fill="none">
  <rect x="1" y="1" width="70" height="70" rx="18" stroke="#0f172a" stroke-width="2" opacity="0.18"/>
  <path d="M22 38l8-8a6 6 0 0 1 8 0l2 2a4 4 0 0 0 6 0l4-4" stroke="#0f172a" stroke-width="2.5" stroke-linecap="round" stroke-linejoin="round"/>
  <path d="M18 34l6-6 8 8-6 6a4 4 0 0 1-6 0l-2-2a4 4 0 0 1 0-6Z" stroke="#0f172a" stroke-width="2.5" stroke-linejoin="round" opacity="0.9"/>
  <path d="M54 30l-6-6-8 8 6 6a4 4 0 0 0 6 0l2-2a4 4 0 0 0 0-6Z" stroke="#0f172a" stroke-width="2.5" stroke-linejoin="round" opacity="0.9"/>
</svg>
