<svg xmlns="http://www.w3.org/2000/svg" width="72" height="72" viewBox="0 0 72 72" fill="none">
  <rect x="1" y="1" width="70" height="70" rx="18" stroke="#0f172a" stroke-width="2" opacity="0.18"/>
  <path d="M24 40l8-8a4 4 0 0 1 6 0l10 10a4 4 0 0 1 0 6l-2 2a4 4 0 0 1-6 0l-4-4-4 4a4 4 0 0 1-6 0l-2-2a4 4 0 0 1 0-6Z" stroke="#0f172a" stroke-width="2.5" stroke-linejoin="round"/>
  <path d="M20 34l7-7" stroke="#0f172a" stroke-width="2.5" stroke-linecap="round" opacity="0.85"/>
  <path d="M52 34l-7-7" stroke="#0f172a" stroke-width="2.5" stroke-linecap="round" opacity="0.85"/>
</svg>
