<svg xmlns="http://www.w3.org/2000/svg" width="72" height="72" viewBox="0 0 72 72" fill="none">
  <rect x="1" y="1" width="70" height="70" rx="18" stroke="#0f172a" stroke-width="2" opacity="0.18"/>
  <path d="M28 34c4.4 0 8-3.6 8-8s-3.6-8-8-8-8 3.6-8 8 3.6 8 8 8Z" stroke="#0f172a" stroke-width="2.5"/>
  <path d="M44 36c3.9 0 7-3.1 7-7s-3.1-7-7-7" stroke="#0f172a" stroke-width="2.5" stroke-linecap="round" opacity="0.85"/>
  <path d="M18 54c2.2-7.2 8.5-12 16-12 7.6 0 13.8 4.8 16 12" stroke="#0f172a" stroke-width="2.5" stroke-linecap="round"/>
  <path d="M46 44c4.7 1 8.4 4.2 10 10" stroke="#0f172a" stroke-width="2.5" stroke-linecap="round" opacity="0.85"/>
</svg>
