<svg xmlns="http://www.w3.org/2000/svg" width="72" height="72" viewBox="0 0 72 72" fill="none">
  <rect x="1" y="1" width="70" height="70" rx="18" stroke="#0f172a" stroke-width="2" opacity="0.18"/>
  <path d="M36 14c9.4 0 17 7.6 17 17 0 6.2-3.3 11.6-8.2 14.5-1.6 1-2.8 2.6-3.2 4.5l-.2 1H30.6l-.2-1c-.4-1.9-1.6-3.5-3.2-4.5C22.3 42.6 19 37.2 19 31c0-9.4 7.6-17 17-17Z" stroke="#0f172a" stroke-width="2.5"/>
  <path d="M30 56h12" stroke="#0f172a" stroke-width="2.5" stroke-linecap="round"/>
  <path d="M31.5 50h9" stroke="#0f172a" stroke-width="2.5" stroke-linecap="round" opacity="0.85"/>
  <path d="M33 28l3 3 6-6" stroke="#0f172a" stroke-width="2.5" stroke-linecap="round" stroke-linejoin="round" opacity="0.9"/>
</svg>
